<?xml version="1.0" ?><svg height="500" id="svg2" version="1.1" width="500" xmlns="http://www.w3.org/2000/svg" xmlns:cc="http://creativecommons.org/ns#" xmlns:dc="http://purl.org/dc/elements/1.1/" xmlns:inkscape="http://www.inkscape.org/namespaces/inkscape" xmlns:rdf="http://www.w3.org/1999/02/22-rdf-syntax-ns#" xmlns:sodipodi="http://sodipodi.sourceforge.net/DTD/sodipodi-0.dtd" xmlns:svg="http://www.w3.org/2000/svg"><defs id="defs4"/><g id="layer1" transform="translate(0,-552.36218)"><g id="layer1-9" transform="translate(-549.00515,80.294372)"/><g id="layer1-6" transform="translate(-575.71429,39.999999)"/><g id="layer1-1" transform="matrix(0.99996732,0,0,0.99996732,447.69599,27.553274)"/><path d="m 0,552.36216 0,500.00004 500,0 0,-500.00004 z" id="rect2989-1" style="fill:#3f5a6f;fill-opacity:1;stroke:none"/><path d="M 500,500 292.06035,500 199.51232,407.45197 186.19751,271.37609 130.58035,215.75893 266.57094,59.96924 500,293.3983 z" id="path3022" style="fill:#000000;stroke:#000000;stroke-width:1px;stroke-linecap:butt;stroke-linejoin:miter;stroke-opacity:1;opacity:0.3" transform="translate(0,552.36218)"/><path d="M 212.5 60 C 210.06789 79.58819 205.6577 95.736084 199.1875 108.40625 C 192.76364 121.10731 184.20167 131.9826 173.53125 141.0625 C 162.90716 150.11152 145.61218 157.03394 130.6875 161.875 L 130.6875 215.71875 L 182.3125 215.71875 L 182.3125 348.96875 C 182.3125 366.34101 184.12921 379.62413 187.78125 388.78125 C 191.42555 397.91519 197.94804 406.52604 207.40625 414.65625 C 216.81816 422.72469 228.20516 429.02108 241.5625 433.4375 C 254.89667 437.79987 265.159 440 282.53125 440 C 297.83426 440 312.03899 438.43251 325.21875 435.375 C 338.38305 432.31748 353.09839 426.92502 369.3125 419.28125 L 369.3125 359.375 C 350.28023 371.8753 331.147 378.125 311.90625 378.125 C 301.0814 378.125 291.49384 375.61203 283.0625 370.5625 C 276.73129 366.84097 270.91776 360.37164 268.59375 354.15625 C 266.26973 347.90995 266.53125 335.19971 266.53125 313.15625 L 266.53125 215.71875 L 354.40625 215.71875 L 354.40625 147.875 L 266.53125 147.875 L 266.53125 60 L 212.5 60 z " id="rect2989" style="fill:#ffffff;fill-opacity:1;stroke:none" transform="translate(0,552.36218)"/></g></svg>